<mxfile host="app.diagrams.net" modified="2022-01-27T02:38:19.930Z" agent="5.0 (Windows NT 10.0; Win64; x64) AppleWebKit/537.36 (KHTML, like Gecko) Chrome/97.0.4692.99 Safari/537.36" etag="oLKz2kwUkRxXFpsIyvoy" version="16.4.2" type="github">
  <diagram id="DESND6YX3MMEEWKlEjur" name="Page-1">
    <mxGraphModel dx="1665" dy="1094" grid="1" gridSize="10" guides="1" tooltips="1" connect="1" arrows="1" fold="1" page="1" pageScale="1" pageWidth="850" pageHeight="1100" math="0" shadow="0">
      <root>
        <mxCell id="0" />
        <mxCell id="1" parent="0" />
        <mxCell id="lSKSzUiKzHceeJeMAkrK-1" value="" style="points=[];aspect=fixed;html=1;align=center;shadow=0;dashed=0;image;image=img/lib/allied_telesis/computer_and_terminals/Personal_Computer.svg;" vertex="1" parent="1">
          <mxGeometry x="10" y="360" width="80" height="108.42" as="geometry" />
        </mxCell>
        <mxCell id="lSKSzUiKzHceeJeMAkrK-2" value="" style="aspect=fixed;perimeter=ellipsePerimeter;html=1;align=center;shadow=0;dashed=0;spacingTop=3;image;image=img/lib/active_directory/internet_cloud.svg;" vertex="1" parent="1">
          <mxGeometry x="-14.68" y="220" width="129.37" height="81.5" as="geometry" />
        </mxCell>
        <mxCell id="lSKSzUiKzHceeJeMAkrK-4" value="" style="sketch=0;aspect=fixed;html=1;points=[];align=center;image;fontSize=12;image=img/lib/mscae/Network_Security_Groups_Classic.svg;" vertex="1" parent="1">
          <mxGeometry x="220" y="235.75" width="37" height="50" as="geometry" />
        </mxCell>
        <mxCell id="lSKSzUiKzHceeJeMAkrK-5" value="" style="sketch=0;aspect=fixed;html=1;points=[];align=center;image;fontSize=12;image=img/lib/mscae/Network_Security_Groups_Classic.svg;" vertex="1" parent="1">
          <mxGeometry x="220" y="389.21" width="37" height="50" as="geometry" />
        </mxCell>
        <mxCell id="lSKSzUiKzHceeJeMAkrK-7" value="" style="verticalLabelPosition=bottom;html=1;verticalAlign=top;align=center;strokeColor=none;fillColor=#00BEF2;shape=mxgraph.azure.virtual_machine;" vertex="1" parent="1">
          <mxGeometry x="340" y="225.75" width="70" height="60" as="geometry" />
        </mxCell>
        <mxCell id="lSKSzUiKzHceeJeMAkrK-8" value="" style="verticalLabelPosition=bottom;html=1;verticalAlign=top;align=center;strokeColor=none;fillColor=#00BEF2;shape=mxgraph.azure.virtual_machine;" vertex="1" parent="1">
          <mxGeometry x="340" y="450" width="70" height="60" as="geometry" />
        </mxCell>
        <mxCell id="lSKSzUiKzHceeJeMAkrK-9" value="" style="verticalLabelPosition=bottom;html=1;verticalAlign=top;align=center;strokeColor=none;fillColor=#00BEF2;shape=mxgraph.azure.virtual_machine;" vertex="1" parent="1">
          <mxGeometry x="340" y="329.21" width="70" height="60" as="geometry" />
        </mxCell>
        <mxCell id="lSKSzUiKzHceeJeMAkrK-10" value="" style="verticalLabelPosition=bottom;html=1;verticalAlign=top;align=center;strokeColor=none;fillColor=#00BEF2;shape=mxgraph.azure.virtual_machine;" vertex="1" parent="1">
          <mxGeometry x="560" y="500" width="70" height="60" as="geometry" />
        </mxCell>
        <mxCell id="lSKSzUiKzHceeJeMAkrK-11" value="" style="verticalLabelPosition=bottom;html=1;verticalAlign=top;align=center;strokeColor=none;fillColor=#00BEF2;shape=mxgraph.azure.azure_load_balancer;" vertex="1" parent="1">
          <mxGeometry x="570" y="170" width="80" height="50" as="geometry" />
        </mxCell>
      </root>
    </mxGraphModel>
  </diagram>
</mxfile>
